# xmcd
#
# Track frame offsets: 
#        150
#        15392
#        36102
#        54327
#        64512
#        73992
#        87692
#        109325
#        121542
#
# Disc length: 1840 seconds
#
# Revision: 0
# Processed by: cddbd v1.5.1PL0 Copyright (c) Steve Scherf et al.
# Submitted via: ExactAudioCopy v0.95a5
#
DISCID=73072e09
DTITLE=Desireé Million - Who She Is
DYEAR=1998
DGENRE=Blues
TTITLE0=Down On You
TTITLE1=Modern Girl
TTITLE2=In The City
TTITLE3=Whiskey Sour
TTITLE4=Who Is She?
TTITLE5=Lady In Line
TTITLE6=The Jag
TTITLE7=Can't Win
TTITLE8=Down On You - Reprise
EXTD=
EXTT0=
EXTT1=
EXTT2=
EXTT3=
EXTT4=
EXTT5=
EXTT6=
EXTT7=
EXTT8=
PLAYORDER=
